<?xml version="1.0" encoding="utf-8" standalone="no"?>
<!DOCTYPE svg PUBLIC "-//W3C//DTD SVG 1.1//EN"
  "http://www.w3.org/Graphics/SVG/1.1/DTD/svg11.dtd">
<svg xmlns:xlink="http://www.w3.org/1999/xlink" width="640.064375pt" height="483.954844pt" viewBox="0 0 640.064375 483.954844" xmlns="http://www.w3.org/2000/svg" version="1.1">
 <metadata>
  <rdf:RDF xmlns:dc="http://purl.org/dc/elements/1.1/" xmlns:cc="http://creativecommons.org/ns#" xmlns:rdf="http://www.w3.org/1999/02/22-rdf-syntax-ns#">
   <cc:Work>
    <dc:type rdf:resource="http://purl.org/dc/dcmitype/StillImage"/>
    <dc:date>2023-02-23T10:12:33.568858</dc:date>
    <dc:format>image/svg+xml</dc:format>
    <dc:creator>
     <cc:Agent>
      <dc:title>Matplotlib v3.6.0, https://matplotlib.org/</dc:title>
     </cc:Agent>
    </dc:creator>
   </cc:Work>
  </rdf:RDF>
 </metadata>
 <defs>
  <style type="text/css">*{stroke-linejoin: round; stroke-linecap: butt}</style>
 </defs>
 <g id="figure_1">
  <g id="patch_1">
   <path d="M 0 483.954844 
L 640.064375 483.954844 
L 640.064375 0 
L 0 0 
z
" style="fill: #ffffff"/>
  </g>
  <g id="axes_1">
   <g id="patch_2">
    <path d="M 46.964375 442.08 
L 632.864375 442.08 
L 632.864375 7.2 
L 46.964375 7.2 
z
" style="fill: #eaeaf2"/>
   </g>
   <g id="matplotlib.axis_1">
    <g id="xtick_1">
     <g id="line2d_1">
      <path d="M 73.596193 442.08 
L 73.596193 7.2 
" clip-path="url(#p58131377da)" style="fill: none; stroke: #ffffff; stroke-linecap: round"/>
     </g>
     <g id="text_1">
      <!-- 400 -->
      <g style="fill: #262626" transform="translate(64.420646 459.453594) scale(0.11 -0.11)">
       <defs>
        <path id="ArialMT-34" d="M 2069 0 
L 2069 1097 
L 81 1097 
L 81 1613 
L 2172 4581 
L 2631 4581 
L 2631 1613 
L 3250 1613 
L 3250 1097 
L 2631 1097 
L 2631 0 
L 2069 0 
z
M 2069 1613 
L 2069 3678 
L 634 1613 
L 2069 1613 
z
" transform="scale(0.015625)"/>
        <path id="ArialMT-30" d="M 266 2259 
Q 266 3072 433 3567 
Q 600 4063 929 4331 
Q 1259 4600 1759 4600 
Q 2128 4600 2406 4451 
Q 2684 4303 2865 4023 
Q 3047 3744 3150 3342 
Q 3253 2941 3253 2259 
Q 3253 1453 3087 958 
Q 2922 463 2592 192 
Q 2263 -78 1759 -78 
Q 1097 -78 719 397 
Q 266 969 266 2259 
z
M 844 2259 
Q 844 1131 1108 757 
Q 1372 384 1759 384 
Q 2147 384 2411 759 
Q 2675 1134 2675 2259 
Q 2675 3391 2411 3762 
Q 2147 4134 1753 4134 
Q 1366 4134 1134 3806 
Q 844 3388 844 2259 
z
" transform="scale(0.015625)"/>
       </defs>
       <use xlink:href="#ArialMT-34"/>
       <use xlink:href="#ArialMT-30" x="55.615234"/>
       <use xlink:href="#ArialMT-30" x="111.230469"/>
      </g>
     </g>
    </g>
    <g id="xtick_2">
     <g id="line2d_2">
      <path d="M 149.687102 442.08 
L 149.687102 7.2 
" clip-path="url(#p58131377da)" style="fill: none; stroke: #ffffff; stroke-linecap: round"/>
     </g>
     <g id="text_2">
      <!-- 500 -->
      <g style="fill: #262626" transform="translate(140.511555 459.453594) scale(0.11 -0.11)">
       <defs>
        <path id="ArialMT-35" d="M 266 1200 
L 856 1250 
Q 922 819 1161 601 
Q 1400 384 1738 384 
Q 2144 384 2425 690 
Q 2706 997 2706 1503 
Q 2706 1984 2436 2262 
Q 2166 2541 1728 2541 
Q 1456 2541 1237 2417 
Q 1019 2294 894 2097 
L 366 2166 
L 809 4519 
L 3088 4519 
L 3088 3981 
L 1259 3981 
L 1013 2750 
Q 1425 3038 1878 3038 
Q 2478 3038 2890 2622 
Q 3303 2206 3303 1553 
Q 3303 931 2941 478 
Q 2500 -78 1738 -78 
Q 1113 -78 717 272 
Q 322 622 266 1200 
z
" transform="scale(0.015625)"/>
       </defs>
       <use xlink:href="#ArialMT-35"/>
       <use xlink:href="#ArialMT-30" x="55.615234"/>
       <use xlink:href="#ArialMT-30" x="111.230469"/>
      </g>
     </g>
    </g>
    <g id="xtick_3">
     <g id="line2d_3">
      <path d="M 225.778011 442.08 
L 225.778011 7.2 
" clip-path="url(#p58131377da)" style="fill: none; stroke: #ffffff; stroke-linecap: round"/>
     </g>
     <g id="text_3">
      <!-- 600 -->
      <g style="fill: #262626" transform="translate(216.602464 459.453594) scale(0.11 -0.11)">
       <defs>
        <path id="ArialMT-36" d="M 3184 3459 
L 2625 3416 
Q 2550 3747 2413 3897 
Q 2184 4138 1850 4138 
Q 1581 4138 1378 3988 
Q 1113 3794 959 3422 
Q 806 3050 800 2363 
Q 1003 2672 1297 2822 
Q 1591 2972 1913 2972 
Q 2475 2972 2870 2558 
Q 3266 2144 3266 1488 
Q 3266 1056 3080 686 
Q 2894 316 2569 119 
Q 2244 -78 1831 -78 
Q 1128 -78 684 439 
Q 241 956 241 2144 
Q 241 3472 731 4075 
Q 1159 4600 1884 4600 
Q 2425 4600 2770 4297 
Q 3116 3994 3184 3459 
z
M 888 1484 
Q 888 1194 1011 928 
Q 1134 663 1356 523 
Q 1578 384 1822 384 
Q 2178 384 2434 671 
Q 2691 959 2691 1453 
Q 2691 1928 2437 2201 
Q 2184 2475 1800 2475 
Q 1419 2475 1153 2201 
Q 888 1928 888 1484 
z
" transform="scale(0.015625)"/>
       </defs>
       <use xlink:href="#ArialMT-36"/>
       <use xlink:href="#ArialMT-30" x="55.615234"/>
       <use xlink:href="#ArialMT-30" x="111.230469"/>
      </g>
     </g>
    </g>
    <g id="xtick_4">
     <g id="line2d_4">
      <path d="M 301.86892 442.08 
L 301.86892 7.2 
" clip-path="url(#p58131377da)" style="fill: none; stroke: #ffffff; stroke-linecap: round"/>
     </g>
     <g id="text_4">
      <!-- 700 -->
      <g style="fill: #262626" transform="translate(292.693374 459.453594) scale(0.11 -0.11)">
       <defs>
        <path id="ArialMT-37" d="M 303 3981 
L 303 4522 
L 3269 4522 
L 3269 4084 
Q 2831 3619 2401 2847 
Q 1972 2075 1738 1259 
Q 1569 684 1522 0 
L 944 0 
Q 953 541 1156 1306 
Q 1359 2072 1739 2783 
Q 2119 3494 2547 3981 
L 303 3981 
z
" transform="scale(0.015625)"/>
       </defs>
       <use xlink:href="#ArialMT-37"/>
       <use xlink:href="#ArialMT-30" x="55.615234"/>
       <use xlink:href="#ArialMT-30" x="111.230469"/>
      </g>
     </g>
    </g>
    <g id="xtick_5">
     <g id="line2d_5">
      <path d="M 377.95983 442.08 
L 377.95983 7.2 
" clip-path="url(#p58131377da)" style="fill: none; stroke: #ffffff; stroke-linecap: round"/>
     </g>
     <g id="text_5">
      <!-- 800 -->
      <g style="fill: #262626" transform="translate(368.784283 459.453594) scale(0.11 -0.11)">
       <defs>
        <path id="ArialMT-38" d="M 1131 2484 
Q 781 2613 612 2850 
Q 444 3088 444 3419 
Q 444 3919 803 4259 
Q 1163 4600 1759 4600 
Q 2359 4600 2725 4251 
Q 3091 3903 3091 3403 
Q 3091 3084 2923 2848 
Q 2756 2613 2416 2484 
Q 2838 2347 3058 2040 
Q 3278 1734 3278 1309 
Q 3278 722 2862 322 
Q 2447 -78 1769 -78 
Q 1091 -78 675 323 
Q 259 725 259 1325 
Q 259 1772 486 2073 
Q 713 2375 1131 2484 
z
M 1019 3438 
Q 1019 3113 1228 2906 
Q 1438 2700 1772 2700 
Q 2097 2700 2305 2904 
Q 2513 3109 2513 3406 
Q 2513 3716 2298 3927 
Q 2084 4138 1766 4138 
Q 1444 4138 1231 3931 
Q 1019 3725 1019 3438 
z
M 838 1322 
Q 838 1081 952 856 
Q 1066 631 1291 507 
Q 1516 384 1775 384 
Q 2178 384 2440 643 
Q 2703 903 2703 1303 
Q 2703 1709 2433 1975 
Q 2163 2241 1756 2241 
Q 1359 2241 1098 1978 
Q 838 1716 838 1322 
z
" transform="scale(0.015625)"/>
       </defs>
       <use xlink:href="#ArialMT-38"/>
       <use xlink:href="#ArialMT-30" x="55.615234"/>
       <use xlink:href="#ArialMT-30" x="111.230469"/>
      </g>
     </g>
    </g>
    <g id="xtick_6">
     <g id="line2d_6">
      <path d="M 454.050739 442.08 
L 454.050739 7.2 
" clip-path="url(#p58131377da)" style="fill: none; stroke: #ffffff; stroke-linecap: round"/>
     </g>
     <g id="text_6">
      <!-- 900 -->
      <g style="fill: #262626" transform="translate(444.875192 459.453594) scale(0.11 -0.11)">
       <defs>
        <path id="ArialMT-39" d="M 350 1059 
L 891 1109 
Q 959 728 1153 556 
Q 1347 384 1650 384 
Q 1909 384 2104 503 
Q 2300 622 2425 820 
Q 2550 1019 2634 1356 
Q 2719 1694 2719 2044 
Q 2719 2081 2716 2156 
Q 2547 1888 2255 1720 
Q 1963 1553 1622 1553 
Q 1053 1553 659 1965 
Q 266 2378 266 3053 
Q 266 3750 677 4175 
Q 1088 4600 1706 4600 
Q 2153 4600 2523 4359 
Q 2894 4119 3086 3673 
Q 3278 3228 3278 2384 
Q 3278 1506 3087 986 
Q 2897 466 2520 194 
Q 2144 -78 1638 -78 
Q 1100 -78 759 220 
Q 419 519 350 1059 
z
M 2653 3081 
Q 2653 3566 2395 3850 
Q 2138 4134 1775 4134 
Q 1400 4134 1122 3828 
Q 844 3522 844 3034 
Q 844 2597 1108 2323 
Q 1372 2050 1759 2050 
Q 2150 2050 2401 2323 
Q 2653 2597 2653 3081 
z
" transform="scale(0.015625)"/>
       </defs>
       <use xlink:href="#ArialMT-39"/>
       <use xlink:href="#ArialMT-30" x="55.615234"/>
       <use xlink:href="#ArialMT-30" x="111.230469"/>
      </g>
     </g>
    </g>
    <g id="xtick_7">
     <g id="line2d_7">
      <path d="M 530.141648 442.08 
L 530.141648 7.2 
" clip-path="url(#p58131377da)" style="fill: none; stroke: #ffffff; stroke-linecap: round"/>
     </g>
     <g id="text_7">
      <!-- 1000 -->
      <g style="fill: #262626" transform="translate(517.907585 459.453594) scale(0.11 -0.11)">
       <defs>
        <path id="ArialMT-31" d="M 2384 0 
L 1822 0 
L 1822 3584 
Q 1619 3391 1289 3197 
Q 959 3003 697 2906 
L 697 3450 
Q 1169 3672 1522 3987 
Q 1875 4303 2022 4600 
L 2384 4600 
L 2384 0 
z
" transform="scale(0.015625)"/>
       </defs>
       <use xlink:href="#ArialMT-31"/>
       <use xlink:href="#ArialMT-30" x="55.615234"/>
       <use xlink:href="#ArialMT-30" x="111.230469"/>
       <use xlink:href="#ArialMT-30" x="166.845703"/>
      </g>
     </g>
    </g>
    <g id="xtick_8">
     <g id="line2d_8">
      <path d="M 606.232557 442.08 
L 606.232557 7.2 
" clip-path="url(#p58131377da)" style="fill: none; stroke: #ffffff; stroke-linecap: round"/>
     </g>
     <g id="text_8">
      <!-- 1100 -->
      <g style="fill: #262626" transform="translate(594.404119 459.453594) scale(0.11 -0.11)">
       <use xlink:href="#ArialMT-31"/>
       <use xlink:href="#ArialMT-31" x="48.240234"/>
       <use xlink:href="#ArialMT-30" x="103.855469"/>
       <use xlink:href="#ArialMT-30" x="159.470703"/>
      </g>
     </g>
    </g>
    <g id="text_9">
     <!-- Longuitud de onda [nm] -->
     <g style="fill: #262626" transform="translate(276.870313 474.229219) scale(0.12 -0.12)">
      <defs>
       <path id="ArialMT-4c" d="M 469 0 
L 469 4581 
L 1075 4581 
L 1075 541 
L 3331 541 
L 3331 0 
L 469 0 
z
" transform="scale(0.015625)"/>
       <path id="ArialMT-6f" d="M 213 1659 
Q 213 2581 725 3025 
Q 1153 3394 1769 3394 
Q 2453 3394 2887 2945 
Q 3322 2497 3322 1706 
Q 3322 1066 3130 698 
Q 2938 331 2570 128 
Q 2203 -75 1769 -75 
Q 1072 -75 642 372 
Q 213 819 213 1659 
z
M 791 1659 
Q 791 1022 1069 705 
Q 1347 388 1769 388 
Q 2188 388 2466 706 
Q 2744 1025 2744 1678 
Q 2744 2294 2464 2611 
Q 2184 2928 1769 2928 
Q 1347 2928 1069 2612 
Q 791 2297 791 1659 
z
" transform="scale(0.015625)"/>
       <path id="ArialMT-6e" d="M 422 0 
L 422 3319 
L 928 3319 
L 928 2847 
Q 1294 3394 1984 3394 
Q 2284 3394 2536 3286 
Q 2788 3178 2913 3003 
Q 3038 2828 3088 2588 
Q 3119 2431 3119 2041 
L 3119 0 
L 2556 0 
L 2556 2019 
Q 2556 2363 2490 2533 
Q 2425 2703 2258 2804 
Q 2091 2906 1866 2906 
Q 1506 2906 1245 2678 
Q 984 2450 984 1813 
L 984 0 
L 422 0 
z
" transform="scale(0.015625)"/>
       <path id="ArialMT-67" d="M 319 -275 
L 866 -356 
Q 900 -609 1056 -725 
Q 1266 -881 1628 -881 
Q 2019 -881 2231 -725 
Q 2444 -569 2519 -288 
Q 2563 -116 2559 434 
Q 2191 0 1641 0 
Q 956 0 581 494 
Q 206 988 206 1678 
Q 206 2153 378 2554 
Q 550 2956 876 3175 
Q 1203 3394 1644 3394 
Q 2231 3394 2613 2919 
L 2613 3319 
L 3131 3319 
L 3131 450 
Q 3131 -325 2973 -648 
Q 2816 -972 2473 -1159 
Q 2131 -1347 1631 -1347 
Q 1038 -1347 672 -1080 
Q 306 -813 319 -275 
z
M 784 1719 
Q 784 1066 1043 766 
Q 1303 466 1694 466 
Q 2081 466 2343 764 
Q 2606 1063 2606 1700 
Q 2606 2309 2336 2618 
Q 2066 2928 1684 2928 
Q 1309 2928 1046 2623 
Q 784 2319 784 1719 
z
" transform="scale(0.015625)"/>
       <path id="ArialMT-75" d="M 2597 0 
L 2597 488 
Q 2209 -75 1544 -75 
Q 1250 -75 995 37 
Q 741 150 617 320 
Q 494 491 444 738 
Q 409 903 409 1263 
L 409 3319 
L 972 3319 
L 972 1478 
Q 972 1038 1006 884 
Q 1059 663 1231 536 
Q 1403 409 1656 409 
Q 1909 409 2131 539 
Q 2353 669 2445 892 
Q 2538 1116 2538 1541 
L 2538 3319 
L 3100 3319 
L 3100 0 
L 2597 0 
z
" transform="scale(0.015625)"/>
       <path id="ArialMT-69" d="M 425 3934 
L 425 4581 
L 988 4581 
L 988 3934 
L 425 3934 
z
M 425 0 
L 425 3319 
L 988 3319 
L 988 0 
L 425 0 
z
" transform="scale(0.015625)"/>
       <path id="ArialMT-74" d="M 1650 503 
L 1731 6 
Q 1494 -44 1306 -44 
Q 1000 -44 831 53 
Q 663 150 594 308 
Q 525 466 525 972 
L 525 2881 
L 113 2881 
L 113 3319 
L 525 3319 
L 525 4141 
L 1084 4478 
L 1084 3319 
L 1650 3319 
L 1650 2881 
L 1084 2881 
L 1084 941 
Q 1084 700 1114 631 
Q 1144 563 1211 522 
Q 1278 481 1403 481 
Q 1497 481 1650 503 
z
" transform="scale(0.015625)"/>
       <path id="ArialMT-64" d="M 2575 0 
L 2575 419 
Q 2259 -75 1647 -75 
Q 1250 -75 917 144 
Q 584 363 401 755 
Q 219 1147 219 1656 
Q 219 2153 384 2558 
Q 550 2963 881 3178 
Q 1213 3394 1622 3394 
Q 1922 3394 2156 3267 
Q 2391 3141 2538 2938 
L 2538 4581 
L 3097 4581 
L 3097 0 
L 2575 0 
z
M 797 1656 
Q 797 1019 1065 703 
Q 1334 388 1700 388 
Q 2069 388 2326 689 
Q 2584 991 2584 1609 
Q 2584 2291 2321 2609 
Q 2059 2928 1675 2928 
Q 1300 2928 1048 2622 
Q 797 2316 797 1656 
z
" transform="scale(0.015625)"/>
       <path id="ArialMT-20" transform="scale(0.015625)"/>
       <path id="ArialMT-65" d="M 2694 1069 
L 3275 997 
Q 3138 488 2766 206 
Q 2394 -75 1816 -75 
Q 1088 -75 661 373 
Q 234 822 234 1631 
Q 234 2469 665 2931 
Q 1097 3394 1784 3394 
Q 2450 3394 2872 2941 
Q 3294 2488 3294 1666 
Q 3294 1616 3291 1516 
L 816 1516 
Q 847 969 1125 678 
Q 1403 388 1819 388 
Q 2128 388 2347 550 
Q 2566 713 2694 1069 
z
M 847 1978 
L 2700 1978 
Q 2663 2397 2488 2606 
Q 2219 2931 1791 2931 
Q 1403 2931 1139 2672 
Q 875 2413 847 1978 
z
" transform="scale(0.015625)"/>
       <path id="ArialMT-61" d="M 2588 409 
Q 2275 144 1986 34 
Q 1697 -75 1366 -75 
Q 819 -75 525 192 
Q 231 459 231 875 
Q 231 1119 342 1320 
Q 453 1522 633 1644 
Q 813 1766 1038 1828 
Q 1203 1872 1538 1913 
Q 2219 1994 2541 2106 
Q 2544 2222 2544 2253 
Q 2544 2597 2384 2738 
Q 2169 2928 1744 2928 
Q 1347 2928 1158 2789 
Q 969 2650 878 2297 
L 328 2372 
Q 403 2725 575 2942 
Q 747 3159 1072 3276 
Q 1397 3394 1825 3394 
Q 2250 3394 2515 3294 
Q 2781 3194 2906 3042 
Q 3031 2891 3081 2659 
Q 3109 2516 3109 2141 
L 3109 1391 
Q 3109 606 3145 398 
Q 3181 191 3288 0 
L 2700 0 
Q 2613 175 2588 409 
z
M 2541 1666 
Q 2234 1541 1622 1453 
Q 1275 1403 1131 1340 
Q 988 1278 909 1158 
Q 831 1038 831 891 
Q 831 666 1001 516 
Q 1172 366 1500 366 
Q 1825 366 2078 508 
Q 2331 650 2450 897 
Q 2541 1088 2541 1459 
L 2541 1666 
z
" transform="scale(0.015625)"/>
       <path id="ArialMT-5b" d="M 434 -1272 
L 434 4581 
L 1675 4581 
L 1675 4116 
L 997 4116 
L 997 -806 
L 1675 -806 
L 1675 -1272 
L 434 -1272 
z
" transform="scale(0.015625)"/>
       <path id="ArialMT-6d" d="M 422 0 
L 422 3319 
L 925 3319 
L 925 2853 
Q 1081 3097 1340 3245 
Q 1600 3394 1931 3394 
Q 2300 3394 2536 3241 
Q 2772 3088 2869 2813 
Q 3263 3394 3894 3394 
Q 4388 3394 4653 3120 
Q 4919 2847 4919 2278 
L 4919 0 
L 4359 0 
L 4359 2091 
Q 4359 2428 4304 2576 
Q 4250 2725 4106 2815 
Q 3963 2906 3769 2906 
Q 3419 2906 3187 2673 
Q 2956 2441 2956 1928 
L 2956 0 
L 2394 0 
L 2394 2156 
Q 2394 2531 2256 2718 
Q 2119 2906 1806 2906 
Q 1569 2906 1367 2781 
Q 1166 2656 1075 2415 
Q 984 2175 984 1722 
L 984 0 
L 422 0 
z
" transform="scale(0.015625)"/>
       <path id="ArialMT-5d" d="M 1363 -1272 
L 122 -1272 
L 122 -806 
L 800 -806 
L 800 4116 
L 122 4116 
L 122 4581 
L 1363 4581 
L 1363 -1272 
z
" transform="scale(0.015625)"/>
      </defs>
      <use xlink:href="#ArialMT-4c"/>
      <use xlink:href="#ArialMT-6f" x="55.615234"/>
      <use xlink:href="#ArialMT-6e" x="111.230469"/>
      <use xlink:href="#ArialMT-67" x="166.845703"/>
      <use xlink:href="#ArialMT-75" x="222.460938"/>
      <use xlink:href="#ArialMT-69" x="278.076172"/>
      <use xlink:href="#ArialMT-74" x="300.292969"/>
      <use xlink:href="#ArialMT-75" x="328.076172"/>
      <use xlink:href="#ArialMT-64" x="383.691406"/>
      <use xlink:href="#ArialMT-20" x="439.306641"/>
      <use xlink:href="#ArialMT-64" x="467.089844"/>
      <use xlink:href="#ArialMT-65" x="522.705078"/>
      <use xlink:href="#ArialMT-20" x="578.320312"/>
      <use xlink:href="#ArialMT-6f" x="606.103516"/>
      <use xlink:href="#ArialMT-6e" x="661.71875"/>
      <use xlink:href="#ArialMT-64" x="717.333984"/>
      <use xlink:href="#ArialMT-61" x="772.949219"/>
      <use xlink:href="#ArialMT-20" x="828.564453"/>
      <use xlink:href="#ArialMT-5b" x="856.347656"/>
      <use xlink:href="#ArialMT-6e" x="884.130859"/>
      <use xlink:href="#ArialMT-6d" x="939.746094"/>
      <use xlink:href="#ArialMT-5d" x="1023.046875"/>
     </g>
    </g>
   </g>
   <g id="matplotlib.axis_2">
    <g id="ytick_1">
     <g id="line2d_9">
      <path d="M 46.964375 417.126384 
L 632.864375 417.126384 
" clip-path="url(#p58131377da)" style="fill: none; stroke: #ffffff; stroke-linecap: round"/>
     </g>
     <g id="text_10">
      <!-- 0.1 -->
      <g style="fill: #262626" transform="translate(22.174375 421.063181) scale(0.11 -0.11)">
       <defs>
        <path id="ArialMT-2e" d="M 581 0 
L 581 641 
L 1222 641 
L 1222 0 
L 581 0 
z
" transform="scale(0.015625)"/>
       </defs>
       <use xlink:href="#ArialMT-30"/>
       <use xlink:href="#ArialMT-2e" x="55.615234"/>
       <use xlink:href="#ArialMT-31" x="83.398438"/>
      </g>
     </g>
    </g>
    <g id="ytick_2">
     <g id="line2d_10">
      <path d="M 46.964375 360.876475 
L 632.864375 360.876475 
" clip-path="url(#p58131377da)" style="fill: none; stroke: #ffffff; stroke-linecap: round"/>
     </g>
     <g id="text_11">
      <!-- 0.2 -->
      <g style="fill: #262626" transform="translate(22.174375 364.813271) scale(0.11 -0.11)">
       <defs>
        <path id="ArialMT-32" d="M 3222 541 
L 3222 0 
L 194 0 
Q 188 203 259 391 
Q 375 700 629 1000 
Q 884 1300 1366 1694 
Q 2113 2306 2375 2664 
Q 2638 3022 2638 3341 
Q 2638 3675 2398 3904 
Q 2159 4134 1775 4134 
Q 1369 4134 1125 3890 
Q 881 3647 878 3216 
L 300 3275 
Q 359 3922 746 4261 
Q 1134 4600 1788 4600 
Q 2447 4600 2831 4234 
Q 3216 3869 3216 3328 
Q 3216 3053 3103 2787 
Q 2991 2522 2730 2228 
Q 2469 1934 1863 1422 
Q 1356 997 1212 845 
Q 1069 694 975 541 
L 3222 541 
z
" transform="scale(0.015625)"/>
       </defs>
       <use xlink:href="#ArialMT-30"/>
       <use xlink:href="#ArialMT-2e" x="55.615234"/>
       <use xlink:href="#ArialMT-32" x="83.398438"/>
      </g>
     </g>
    </g>
    <g id="ytick_3">
     <g id="line2d_11">
      <path d="M 46.964375 304.626565 
L 632.864375 304.626565 
" clip-path="url(#p58131377da)" style="fill: none; stroke: #ffffff; stroke-linecap: round"/>
     </g>
     <g id="text_12">
      <!-- 0.3 -->
      <g style="fill: #262626" transform="translate(22.174375 308.563362) scale(0.11 -0.11)">
       <defs>
        <path id="ArialMT-33" d="M 269 1209 
L 831 1284 
Q 928 806 1161 595 
Q 1394 384 1728 384 
Q 2125 384 2398 659 
Q 2672 934 2672 1341 
Q 2672 1728 2419 1979 
Q 2166 2231 1775 2231 
Q 1616 2231 1378 2169 
L 1441 2663 
Q 1497 2656 1531 2656 
Q 1891 2656 2178 2843 
Q 2466 3031 2466 3422 
Q 2466 3731 2256 3934 
Q 2047 4138 1716 4138 
Q 1388 4138 1169 3931 
Q 950 3725 888 3313 
L 325 3413 
Q 428 3978 793 4289 
Q 1159 4600 1703 4600 
Q 2078 4600 2393 4439 
Q 2709 4278 2876 4000 
Q 3044 3722 3044 3409 
Q 3044 3113 2884 2869 
Q 2725 2625 2413 2481 
Q 2819 2388 3044 2092 
Q 3269 1797 3269 1353 
Q 3269 753 2831 336 
Q 2394 -81 1725 -81 
Q 1122 -81 723 278 
Q 325 638 269 1209 
z
" transform="scale(0.015625)"/>
       </defs>
       <use xlink:href="#ArialMT-30"/>
       <use xlink:href="#ArialMT-2e" x="55.615234"/>
       <use xlink:href="#ArialMT-33" x="83.398438"/>
      </g>
     </g>
    </g>
    <g id="ytick_4">
     <g id="line2d_12">
      <path d="M 46.964375 248.376656 
L 632.864375 248.376656 
" clip-path="url(#p58131377da)" style="fill: none; stroke: #ffffff; stroke-linecap: round"/>
     </g>
     <g id="text_13">
      <!-- 0.4 -->
      <g style="fill: #262626" transform="translate(22.174375 252.313453) scale(0.11 -0.11)">
       <use xlink:href="#ArialMT-30"/>
       <use xlink:href="#ArialMT-2e" x="55.615234"/>
       <use xlink:href="#ArialMT-34" x="83.398438"/>
      </g>
     </g>
    </g>
    <g id="ytick_5">
     <g id="line2d_13">
      <path d="M 46.964375 192.126746 
L 632.864375 192.126746 
" clip-path="url(#p58131377da)" style="fill: none; stroke: #ffffff; stroke-linecap: round"/>
     </g>
     <g id="text_14">
      <!-- 0.5 -->
      <g style="fill: #262626" transform="translate(22.174375 196.063543) scale(0.11 -0.11)">
       <use xlink:href="#ArialMT-30"/>
       <use xlink:href="#ArialMT-2e" x="55.615234"/>
       <use xlink:href="#ArialMT-35" x="83.398438"/>
      </g>
     </g>
    </g>
    <g id="ytick_6">
     <g id="line2d_14">
      <path d="M 46.964375 135.876837 
L 632.864375 135.876837 
" clip-path="url(#p58131377da)" style="fill: none; stroke: #ffffff; stroke-linecap: round"/>
     </g>
     <g id="text_15">
      <!-- 0.6 -->
      <g style="fill: #262626" transform="translate(22.174375 139.813634) scale(0.11 -0.11)">
       <use xlink:href="#ArialMT-30"/>
       <use xlink:href="#ArialMT-2e" x="55.615234"/>
       <use xlink:href="#ArialMT-36" x="83.398438"/>
      </g>
     </g>
    </g>
    <g id="ytick_7">
     <g id="line2d_15">
      <path d="M 46.964375 79.626928 
L 632.864375 79.626928 
" clip-path="url(#p58131377da)" style="fill: none; stroke: #ffffff; stroke-linecap: round"/>
     </g>
     <g id="text_16">
      <!-- 0.7 -->
      <g style="fill: #262626" transform="translate(22.174375 83.563725) scale(0.11 -0.11)">
       <use xlink:href="#ArialMT-30"/>
       <use xlink:href="#ArialMT-2e" x="55.615234"/>
       <use xlink:href="#ArialMT-37" x="83.398438"/>
      </g>
     </g>
    </g>
    <g id="ytick_8">
     <g id="line2d_16">
      <path d="M 46.964375 23.377018 
L 632.864375 23.377018 
" clip-path="url(#p58131377da)" style="fill: none; stroke: #ffffff; stroke-linecap: round"/>
     </g>
     <g id="text_17">
      <!-- 0.8 -->
      <g style="fill: #262626" transform="translate(22.174375 27.313815) scale(0.11 -0.11)">
       <use xlink:href="#ArialMT-30"/>
       <use xlink:href="#ArialMT-2e" x="55.615234"/>
       <use xlink:href="#ArialMT-38" x="83.398438"/>
      </g>
     </g>
    </g>
    <g id="text_18">
     <!-- Reflectividad -->
     <g style="fill: #262626" transform="translate(15.789375 258.989062) rotate(-90) scale(0.12 -0.12)">
      <defs>
       <path id="ArialMT-52" d="M 503 0 
L 503 4581 
L 2534 4581 
Q 3147 4581 3465 4457 
Q 3784 4334 3975 4021 
Q 4166 3709 4166 3331 
Q 4166 2844 3850 2509 
Q 3534 2175 2875 2084 
Q 3116 1969 3241 1856 
Q 3506 1613 3744 1247 
L 4541 0 
L 3778 0 
L 3172 953 
Q 2906 1366 2734 1584 
Q 2563 1803 2427 1890 
Q 2291 1978 2150 2013 
Q 2047 2034 1813 2034 
L 1109 2034 
L 1109 0 
L 503 0 
z
M 1109 2559 
L 2413 2559 
Q 2828 2559 3062 2645 
Q 3297 2731 3419 2920 
Q 3541 3109 3541 3331 
Q 3541 3656 3305 3865 
Q 3069 4075 2559 4075 
L 1109 4075 
L 1109 2559 
z
" transform="scale(0.015625)"/>
       <path id="ArialMT-66" d="M 556 0 
L 556 2881 
L 59 2881 
L 59 3319 
L 556 3319 
L 556 3672 
Q 556 4006 616 4169 
Q 697 4388 901 4523 
Q 1106 4659 1475 4659 
Q 1713 4659 2000 4603 
L 1916 4113 
Q 1741 4144 1584 4144 
Q 1328 4144 1222 4034 
Q 1116 3925 1116 3625 
L 1116 3319 
L 1763 3319 
L 1763 2881 
L 1116 2881 
L 1116 0 
L 556 0 
z
" transform="scale(0.015625)"/>
       <path id="ArialMT-6c" d="M 409 0 
L 409 4581 
L 972 4581 
L 972 0 
L 409 0 
z
" transform="scale(0.015625)"/>
       <path id="ArialMT-63" d="M 2588 1216 
L 3141 1144 
Q 3050 572 2676 248 
Q 2303 -75 1759 -75 
Q 1078 -75 664 370 
Q 250 816 250 1647 
Q 250 2184 428 2587 
Q 606 2991 970 3192 
Q 1334 3394 1763 3394 
Q 2303 3394 2647 3120 
Q 2991 2847 3088 2344 
L 2541 2259 
Q 2463 2594 2264 2762 
Q 2066 2931 1784 2931 
Q 1359 2931 1093 2626 
Q 828 2322 828 1663 
Q 828 994 1084 691 
Q 1341 388 1753 388 
Q 2084 388 2306 591 
Q 2528 794 2588 1216 
z
" transform="scale(0.015625)"/>
       <path id="ArialMT-76" d="M 1344 0 
L 81 3319 
L 675 3319 
L 1388 1331 
Q 1503 1009 1600 663 
Q 1675 925 1809 1294 
L 2547 3319 
L 3125 3319 
L 1869 0 
L 1344 0 
z
" transform="scale(0.015625)"/>
      </defs>
      <use xlink:href="#ArialMT-52"/>
      <use xlink:href="#ArialMT-65" x="72.216797"/>
      <use xlink:href="#ArialMT-66" x="127.832031"/>
      <use xlink:href="#ArialMT-6c" x="155.615234"/>
      <use xlink:href="#ArialMT-65" x="177.832031"/>
      <use xlink:href="#ArialMT-63" x="233.447266"/>
      <use xlink:href="#ArialMT-74" x="283.447266"/>
      <use xlink:href="#ArialMT-69" x="311.230469"/>
      <use xlink:href="#ArialMT-76" x="333.447266"/>
      <use xlink:href="#ArialMT-69" x="383.447266"/>
      <use xlink:href="#ArialMT-64" x="405.664062"/>
      <use xlink:href="#ArialMT-61" x="461.279297"/>
      <use xlink:href="#ArialMT-64" x="516.894531"/>
     </g>
    </g>
   </g>
   <g id="PolyCollection_1"/>
   <g id="PolyCollection_2"/>
   <g id="PolyCollection_3"/>
   <g id="PolyCollection_4"/>
   <g id="line2d_17">
    <path d="M 73.596193 268.146065 
L 77.400739 262.525379 
L 81.205284 258.136169 
L 85.00983 254.31342 
L 88.814375 254.147017 
L 92.61892 256.943178 
L 100.228011 264.002717 
L 104.032557 272.915202 
L 107.837102 284.703 
L 111.641648 294.290716 
L 115.446193 300.563703 
L 119.250739 309.483556 
L 123.055284 321.296354 
L 126.85983 332.172474 
L 134.46892 350.345537 
L 138.273466 358.535469 
L 142.078011 364.183611 
L 145.882557 366.421837 
L 149.687102 367.352875 
L 153.491648 368.774604 
L 157.296193 370.741352 
L 161.100739 372.879175 
L 164.905284 374.389274 
L 168.70983 374.884855 
L 172.514375 374.124118 
L 176.31892 372.856812 
L 183.928011 369.893294 
L 187.732557 369.592118 
L 191.537102 371.579226 
L 195.341648 375.697674 
L 199.146193 381.0681 
L 202.950739 387.142327 
L 210.55983 399.934935 
L 214.364375 405.581687 
L 218.16892 410.256462 
L 221.973466 413.74474 
L 225.778011 416.016695 
L 229.582557 417.441165 
L 233.387102 418.358336 
L 237.191648 419.150385 
L 240.996193 419.78981 
L 244.800739 420.171926 
L 252.40983 420.399388 
L 263.823466 420.4185 
L 282.846193 419.853905 
L 290.455284 419.184611 
L 305.673466 417.322242 
L 313.282557 416.181511 
L 324.696193 414.370248 
L 336.10983 413.005494 
L 355.132557 410.755077 
L 358.937102 410.543108 
L 362.741648 410.476272 
L 370.350739 410.661991 
L 385.56892 411.428984 
L 393.178011 411.971972 
L 400.787102 412.725755 
L 419.80983 414.860253 
L 446.441648 417.331493 
L 469.26892 420.125321 
L 476.878011 420.739778 
L 484.487102 421.128424 
L 499.705284 421.54412 
L 533.946193 422.312727 
L 541.555284 422.21466 
L 549.164375 421.966623 
L 564.382557 421.172067 
L 583.405284 420.123001 
L 602.428011 418.987563 
L 606.232557 418.627475 
L 606.232557 418.627475 
" clip-path="url(#p58131377da)" style="fill: none; stroke: #1f77b4; stroke-width: 2.5; stroke-linecap: round"/>
   </g>
   <g id="line2d_18">
    <path d="M 73.596193 248.058916 
L 77.400739 245.716784 
L 81.205284 245.33372 
L 85.00983 251.79295 
L 88.814375 263.624188 
L 92.61892 271.557856 
L 96.423466 275.252998 
L 100.228011 272.589114 
L 104.032557 270.637138 
L 107.837102 272.275508 
L 111.641648 277.597728 
L 115.446193 288.692931 
L 119.250739 304.474848 
L 123.055284 318.470023 
L 126.85983 328.708946 
L 130.664375 334.94212 
L 134.46892 337.553993 
L 138.273466 339.18999 
L 142.078011 339.038087 
L 145.882557 336.96617 
L 149.687102 336.626474 
L 153.491648 340.680327 
L 157.296193 345.945283 
L 161.100739 350.37946 
L 164.905284 353.816804 
L 168.70983 355.753217 
L 172.514375 356.00467 
L 176.31892 355.974848 
L 183.928011 358.452186 
L 187.732557 359.456637 
L 191.537102 363.838242 
L 195.341648 372.477526 
L 199.146193 381.607643 
L 202.950739 388.796321 
L 206.755284 395.246263 
L 210.55983 401.954842 
L 214.364375 408.066403 
L 218.16892 412.524988 
L 221.973466 414.829717 
L 225.778011 415.098292 
L 229.582557 414.745771 
L 233.387102 414.903914 
L 240.996193 416.789384 
L 244.800739 417.2521 
L 252.40983 417.061052 
L 256.214375 417.281263 
L 263.823466 418.148015 
L 267.628011 418.249995 
L 279.041648 417.77315 
L 286.650739 417.87892 
L 290.455284 417.741581 
L 294.25983 417.294508 
L 298.064375 416.55881 
L 309.478011 413.994942 
L 317.087102 412.509781 
L 320.891648 411.650799 
L 324.696193 410.64325 
L 339.914375 406.084361 
L 343.71892 405.228281 
L 347.523466 404.534677 
L 358.937102 402.89012 
L 370.350739 401.278095 
L 374.155284 400.892976 
L 377.95983 400.685765 
L 381.764375 400.681579 
L 385.56892 400.895319 
L 389.373466 401.300122 
L 396.982557 402.489967 
L 408.396193 404.445841 
L 419.80983 406.054216 
L 431.223466 407.632884 
L 442.637102 409.534406 
L 454.050739 411.473256 
L 461.65983 412.528362 
L 469.26892 413.28521 
L 476.878011 413.803274 
L 507.314375 415.55753 
L 522.532557 416.621675 
L 533.946193 417.117743 
L 545.35983 417.088756 
L 552.96892 416.841756 
L 579.600739 415.661906 
L 591.014375 415.430791 
L 606.232557 415.315342 
L 606.232557 415.315342 
" clip-path="url(#p58131377da)" style="fill: none; stroke-dasharray: 10,3.75; stroke-dashoffset: 0; stroke: #ff7f0e; stroke-width: 2.5"/>
   </g>
   <g id="line2d_19">
    <path d="M 73.596193 139.668789 
L 77.400739 134.41881 
L 81.205284 129.832918 
L 85.00983 126.921134 
L 88.814375 129.085949 
L 92.61892 134.376965 
L 96.423466 140.5344 
L 100.228011 144.788466 
L 104.032557 152.67642 
L 107.837102 162.646803 
L 111.641648 171.083589 
L 115.446193 177.161947 
L 119.250739 184.542654 
L 123.055284 190.771582 
L 126.85983 192.277544 
L 130.664375 190.127054 
L 134.46892 187.497259 
L 138.273466 184.408254 
L 142.078011 179.405903 
L 145.882557 172.041595 
L 149.687102 166.949284 
L 153.491648 165.41791 
L 157.296193 166.214944 
L 161.100739 168.357837 
L 164.905284 171.966175 
L 168.70983 176.086385 
L 172.514375 179.689304 
L 176.31892 182.898954 
L 180.123466 186.505484 
L 183.928011 190.842268 
L 187.732557 196.261644 
L 191.537102 205.067574 
L 195.341648 218.102609 
L 199.146193 231.689702 
L 202.950739 242.080189 
L 206.755284 249.307561 
L 210.55983 254.910721 
L 214.364375 258.293704 
L 218.16892 258.590455 
L 221.973466 256.281946 
L 225.778011 253.326951 
L 229.582557 251.282625 
L 233.387102 249.979924 
L 237.191648 248.941017 
L 240.996193 248.10207 
L 244.800739 247.710398 
L 248.605284 247.800694 
L 256.214375 248.316705 
L 263.823466 248.488588 
L 267.628011 248.793404 
L 275.237102 249.802729 
L 279.041648 250.106696 
L 282.846193 250.105604 
L 290.455284 249.489564 
L 301.86892 248.459702 
L 305.673466 247.970152 
L 309.478011 247.280964 
L 313.282557 246.397361 
L 320.891648 244.294093 
L 328.500739 241.981786 
L 336.10983 239.351818 
L 343.71892 236.302311 
L 351.328011 233.202761 
L 355.132557 231.768283 
L 358.937102 230.454189 
L 362.741648 229.264872 
L 366.546193 228.207426 
L 370.350739 227.285965 
L 374.155284 226.530917 
L 377.95983 225.970639 
L 381.764375 225.642307 
L 385.56892 225.575783 
L 389.373466 225.775098 
L 393.178011 226.224306 
L 396.982557 226.878865 
L 404.591648 228.626687 
L 412.200739 230.675252 
L 423.614375 234.03883 
L 431.223466 236.531435 
L 438.832557 239.243745 
L 454.050739 244.840752 
L 461.65983 247.370394 
L 469.26892 249.579289 
L 476.878011 251.48319 
L 484.487102 253.16192 
L 495.900739 255.407499 
L 503.50983 256.74503 
L 511.11892 257.911688 
L 518.728011 258.834757 
L 526.337102 259.459937 
L 533.946193 259.743882 
L 541.555284 259.754736 
L 552.96892 259.400099 
L 575.796193 258.21243 
L 587.20983 257.456497 
L 594.81892 256.757364 
L 602.428011 255.800185 
L 606.232557 255.209109 
L 606.232557 255.209109 
" clip-path="url(#p58131377da)" style="fill: none; stroke-dasharray: 2.5,2.5; stroke-dashoffset: 0; stroke: #2ca02c; stroke-width: 2.5"/>
   </g>
   <g id="line2d_20">
    <path d="M 73.596193 64.088187 
L 77.400739 59.019899 
L 81.205284 56.789904 
L 85.00983 55.870629 
L 88.814375 59.019062 
L 92.61892 60.504363 
L 96.423466 64.331149 
L 100.228011 66.660279 
L 104.032557 71.275609 
L 107.837102 79.584379 
L 111.641648 83.951173 
L 115.446193 83.54301 
L 119.250739 81.465735 
L 123.055284 75.160015 
L 126.85983 63.544268 
L 130.664375 49.644889 
L 134.46892 38.873299 
L 138.273466 32.765205 
L 142.078011 28.005395 
L 145.882557 26.967273 
L 149.687102 30.294064 
L 153.491648 34.340667 
L 157.296193 36.540253 
L 161.100739 37.444816 
L 164.905284 37.054293 
L 168.70983 35.666346 
L 172.514375 32.012734 
L 176.31892 28.664576 
L 180.123466 29.405852 
L 183.928011 34.0579 
L 187.732557 40.508517 
L 191.537102 51.517533 
L 195.341648 66.34187 
L 199.146193 79.080162 
L 202.950739 85.738907 
L 206.755284 88.941786 
L 214.364375 96.932154 
L 218.16892 97.960989 
L 221.973466 96.421856 
L 225.778011 94.527939 
L 229.582557 93.436335 
L 233.387102 92.499185 
L 237.191648 91.403131 
L 240.996193 90.740778 
L 244.800739 90.92626 
L 248.605284 91.52128 
L 252.40983 91.949612 
L 256.214375 91.978654 
L 260.01892 91.877992 
L 263.823466 92.045082 
L 267.628011 92.634307 
L 275.237102 94.238719 
L 279.041648 94.675057 
L 282.846193 94.772047 
L 301.86892 94.326268 
L 313.282557 94.619447 
L 320.891648 94.840877 
L 324.696193 94.846661 
L 332.305284 94.482361 
L 343.71892 93.545628 
L 351.328011 93.18828 
L 362.741648 92.711759 
L 370.350739 92.279565 
L 374.155284 92.173763 
L 377.95983 92.189342 
L 381.764375 92.408024 
L 385.56892 92.808403 
L 389.373466 93.376799 
L 396.982557 94.802326 
L 408.396193 96.989899 
L 419.80983 99.136833 
L 427.41892 100.807869 
L 435.028011 102.781028 
L 446.441648 105.860783 
L 454.050739 107.704365 
L 461.65983 109.227992 
L 469.26892 110.503343 
L 488.291648 113.260646 
L 499.705284 114.81877 
L 507.314375 115.618994 
L 514.923466 116.145444 
L 522.532557 116.30467 
L 526.337102 116.264409 
L 537.750739 115.657587 
L 549.164375 114.714256 
L 564.382557 113.600108 
L 571.991648 113.169582 
L 587.20983 112.435479 
L 594.81892 111.902112 
L 606.232557 110.64442 
L 606.232557 110.64442 
" clip-path="url(#p58131377da)" style="fill: none; stroke-dasharray: 7.5,3.125,3.75,3.125; stroke-dashoffset: 0; stroke: #d62728; stroke-width: 2.5"/>
   </g>
   <g id="line2d_21"/>
   <g id="line2d_22"/>
   <g id="line2d_23"/>
   <g id="line2d_24"/>
   <g id="patch_3">
    <path d="M 46.964375 442.08 
L 46.964375 7.2 
" style="fill: none; stroke: #ffffff; stroke-width: 1.25; stroke-linejoin: miter; stroke-linecap: square"/>
   </g>
   <g id="patch_4">
    <path d="M 632.864375 442.08 
L 632.864375 7.2 
" style="fill: none; stroke: #ffffff; stroke-width: 1.25; stroke-linejoin: miter; stroke-linecap: square"/>
   </g>
   <g id="patch_5">
    <path d="M 46.964375 442.08 
L 632.864375 442.08 
" style="fill: none; stroke: #ffffff; stroke-width: 1.25; stroke-linejoin: miter; stroke-linecap: square"/>
   </g>
   <g id="patch_6">
    <path d="M 46.964375 7.2 
L 632.864375 7.2 
" style="fill: none; stroke: #ffffff; stroke-width: 1.25; stroke-linejoin: miter; stroke-linecap: square"/>
   </g>
   <g id="legend_1">
    <g id="patch_7">
     <path d="M 540.436875 78.368281 
L 625.164375 78.368281 
Q 627.364375 78.368281 627.364375 76.168281 
L 627.364375 14.9 
Q 627.364375 12.7 625.164375 12.7 
L 540.436875 12.7 
Q 538.236875 12.7 538.236875 14.9 
L 538.236875 76.168281 
Q 538.236875 78.368281 540.436875 78.368281 
z
" style="fill: #eaeaf2; opacity: 0.8; stroke: #cccccc; stroke-linejoin: miter"/>
    </g>
    <g id="line2d_25">
     <path d="M 542.636875 21.123594 
L 553.636875 21.123594 
L 564.636875 21.123594 
" style="fill: none; stroke: #1f77b4; stroke-width: 1.5; stroke-linecap: round"/>
    </g>
    <g id="text_19">
     <!-- Severa -->
     <g style="fill: #262626" transform="translate(573.436875 24.973594) scale(0.11 -0.11)">
      <defs>
       <path id="ArialMT-53" d="M 288 1472 
L 859 1522 
Q 900 1178 1048 958 
Q 1197 738 1509 602 
Q 1822 466 2213 466 
Q 2559 466 2825 569 
Q 3091 672 3220 851 
Q 3350 1031 3350 1244 
Q 3350 1459 3225 1620 
Q 3100 1781 2813 1891 
Q 2628 1963 1997 2114 
Q 1366 2266 1113 2400 
Q 784 2572 623 2826 
Q 463 3081 463 3397 
Q 463 3744 659 4045 
Q 856 4347 1234 4503 
Q 1613 4659 2075 4659 
Q 2584 4659 2973 4495 
Q 3363 4331 3572 4012 
Q 3781 3694 3797 3291 
L 3216 3247 
Q 3169 3681 2898 3903 
Q 2628 4125 2100 4125 
Q 1550 4125 1298 3923 
Q 1047 3722 1047 3438 
Q 1047 3191 1225 3031 
Q 1400 2872 2139 2705 
Q 2878 2538 3153 2413 
Q 3553 2228 3743 1945 
Q 3934 1663 3934 1294 
Q 3934 928 3725 604 
Q 3516 281 3123 101 
Q 2731 -78 2241 -78 
Q 1619 -78 1198 103 
Q 778 284 539 648 
Q 300 1013 288 1472 
z
" transform="scale(0.015625)"/>
       <path id="ArialMT-72" d="M 416 0 
L 416 3319 
L 922 3319 
L 922 2816 
Q 1116 3169 1280 3281 
Q 1444 3394 1641 3394 
Q 1925 3394 2219 3213 
L 2025 2691 
Q 1819 2813 1613 2813 
Q 1428 2813 1281 2702 
Q 1134 2591 1072 2394 
Q 978 2094 978 1738 
L 978 0 
L 416 0 
z
" transform="scale(0.015625)"/>
      </defs>
      <use xlink:href="#ArialMT-53"/>
      <use xlink:href="#ArialMT-65" x="66.699219"/>
      <use xlink:href="#ArialMT-76" x="122.314453"/>
      <use xlink:href="#ArialMT-65" x="172.314453"/>
      <use xlink:href="#ArialMT-72" x="227.929688"/>
      <use xlink:href="#ArialMT-61" x="261.230469"/>
     </g>
    </g>
    <g id="line2d_26">
     <path d="M 542.636875 36.683437 
L 553.636875 36.683437 
L 564.636875 36.683437 
" style="fill: none; stroke-dasharray: 6,2.25; stroke-dashoffset: 0; stroke: #ff7f0e; stroke-width: 1.5"/>
    </g>
    <g id="text_20">
     <!-- Moderada -->
     <g style="fill: #262626" transform="translate(573.436875 40.533437) scale(0.11 -0.11)">
      <defs>
       <path id="ArialMT-4d" d="M 475 0 
L 475 4581 
L 1388 4581 
L 2472 1338 
Q 2622 884 2691 659 
Q 2769 909 2934 1394 
L 4031 4581 
L 4847 4581 
L 4847 0 
L 4263 0 
L 4263 3834 
L 2931 0 
L 2384 0 
L 1059 3900 
L 1059 0 
L 475 0 
z
" transform="scale(0.015625)"/>
      </defs>
      <use xlink:href="#ArialMT-4d"/>
      <use xlink:href="#ArialMT-6f" x="83.300781"/>
      <use xlink:href="#ArialMT-64" x="138.916016"/>
      <use xlink:href="#ArialMT-65" x="194.53125"/>
      <use xlink:href="#ArialMT-72" x="250.146484"/>
      <use xlink:href="#ArialMT-61" x="283.447266"/>
      <use xlink:href="#ArialMT-64" x="339.0625"/>
      <use xlink:href="#ArialMT-61" x="394.677734"/>
     </g>
    </g>
    <g id="line2d_27">
     <path d="M 542.636875 52.243281 
L 553.636875 52.243281 
L 564.636875 52.243281 
" style="fill: none; stroke-dasharray: 1.5,1.5; stroke-dashoffset: 0; stroke: #2ca02c; stroke-width: 1.5"/>
    </g>
    <g id="text_21">
     <!-- Ligera -->
     <g style="fill: #262626" transform="translate(573.436875 56.093281) scale(0.11 -0.11)">
      <use xlink:href="#ArialMT-4c"/>
      <use xlink:href="#ArialMT-69" x="55.615234"/>
      <use xlink:href="#ArialMT-67" x="77.832031"/>
      <use xlink:href="#ArialMT-65" x="133.447266"/>
      <use xlink:href="#ArialMT-72" x="189.0625"/>
      <use xlink:href="#ArialMT-61" x="222.363281"/>
     </g>
    </g>
    <g id="line2d_28">
     <path d="M 542.636875 67.932031 
L 553.636875 67.932031 
L 564.636875 67.932031 
" style="fill: none; stroke-dasharray: 4.5,1.875,2.25,1.875; stroke-dashoffset: 0; stroke: #d62728; stroke-width: 1.5"/>
    </g>
    <g id="text_22">
     <!-- Saludable -->
     <g style="fill: #262626" transform="translate(573.436875 71.782031) scale(0.11 -0.11)">
      <defs>
       <path id="ArialMT-62" d="M 941 0 
L 419 0 
L 419 4581 
L 981 4581 
L 981 2947 
Q 1338 3394 1891 3394 
Q 2197 3394 2470 3270 
Q 2744 3147 2920 2923 
Q 3097 2700 3197 2384 
Q 3297 2069 3297 1709 
Q 3297 856 2875 390 
Q 2453 -75 1863 -75 
Q 1275 -75 941 416 
L 941 0 
z
M 934 1684 
Q 934 1088 1097 822 
Q 1363 388 1816 388 
Q 2184 388 2453 708 
Q 2722 1028 2722 1663 
Q 2722 2313 2464 2622 
Q 2206 2931 1841 2931 
Q 1472 2931 1203 2611 
Q 934 2291 934 1684 
z
" transform="scale(0.015625)"/>
      </defs>
      <use xlink:href="#ArialMT-53"/>
      <use xlink:href="#ArialMT-61" x="66.699219"/>
      <use xlink:href="#ArialMT-6c" x="122.314453"/>
      <use xlink:href="#ArialMT-75" x="144.53125"/>
      <use xlink:href="#ArialMT-64" x="200.146484"/>
      <use xlink:href="#ArialMT-61" x="255.761719"/>
      <use xlink:href="#ArialMT-62" x="311.376953"/>
      <use xlink:href="#ArialMT-6c" x="366.992188"/>
      <use xlink:href="#ArialMT-65" x="389.208984"/>
     </g>
    </g>
   </g>
  </g>
 </g>
 <defs>
  <clipPath id="p58131377da">
   <rect x="46.964375" y="7.2" width="585.9" height="434.88"/>
  </clipPath>
 </defs>
</svg>
